<svg xmlns="http://www.w3.org/2000/svg" xmlns:xlink="http://www.w3.org/1999/xlink" viewBox="0 0 770 301.87"><defs><linearGradient id="linear-gradient" x1="402.5" y1="152.37" x2="770" y2="152.37" gradientTransform="matrix(1, 0, 0, -1, 0, 303.73)" gradientUnits="userSpaceOnUse"><stop offset="0.27" stop-color="#ffa800"/><stop offset="1" stop-color="#ff6f00"/></linearGradient></defs><g id="Layer_2" data-name="Layer 2"><g id="Layer_1-2" data-name="Layer 1"><path d="M398.4,156.71l153,87.95,48.82,28.6,30.1,17.63a79.94,79.94,0,0,0,40.44,11H770V.86H0l310.5,181a30.12,30.12,0,0,0,30.3-.1l42.3-24.95A14.76,14.76,0,0,1,398.4,156.71Z" style="fill:url(#linear-gradient)"/><path d="M712.5.87,605.77,63.33a15,15,0,0,0,.08,25.94l53,30.57a15,15,0,0,1,.41,25.74L622.5,168.37" style="fill:none;stroke:#fff;stroke-miterlimit:10;stroke-width:2px;opacity:0.4000000059604645;isolation:isolate"/><path d="M616.5,178.84a6.49,6.49,0,1,0-6.5-6.49A6.49,6.49,0,0,0,616.5,178.84Z" style="fill:none;stroke:#fff;stroke-width:2px;opacity:0.4000000059604645;isolation:isolate"/><path d="M390.5.86,544,91.37" style="fill:none;stroke:#fff;stroke-miterlimit:10;stroke-width:2px;opacity:0.4000000059604645;isolation:isolate"/><path d="M550.5,100.84a6.49,6.49,0,1,0-6.5-6.48A6.49,6.49,0,0,0,550.5,100.84Z" style="fill:#fff;stroke:#fff;stroke-width:2px;opacity:0.4000000059604645;isolation:isolate"/><path d="M579.5.87,436.1,85.82a29.91,29.91,0,0,1-29.9,0L363.3,61.16a14.9,14.9,0,0,0-15.1.1L328.8,72.75" style="fill:none;stroke:#ff6f00;stroke-miterlimit:10;stroke-width:2px;opacity:0.4000000059604645;isolation:isolate"/><path d="M323.1,82.53A6.49,6.49,0,1,0,316.6,76,6.5,6.5,0,0,0,323.1,82.53Z" style="fill:none;stroke:#ff6f00;stroke-miterlimit:10;stroke-width:2px;opacity:0.4000000059604645;isolation:isolate"/><path d="M517.7.86,297.1,129.25" style="fill:none;stroke:#fff;stroke-width:2px;opacity:0.4000000059604645;isolation:isolate"/><path d="M290.6,139.14a6.49,6.49,0,1,0-6.5-6.49A6.5,6.5,0,0,0,290.6,139.14Z" style="fill:#fff;stroke:#fff;stroke-width:2px;opacity:0.4000000059604645;isolation:isolate"/><path d="M128,.86l48.1,28.76a30,30,0,0,0,30.1.4l11-6.19a14.83,14.83,0,0,1,14.7,0l52.2,28.45" style="fill:none;stroke:#fff;stroke-miterlimit:10;stroke-width:2px;opacity:0.4000000059604645;isolation:isolate"/><path d="M290.6,62.06a6.49,6.49,0,1,0-6.5-6.49A6.49,6.49,0,0,0,290.6,62.06Z" style="fill:#fff;stroke:#fff;stroke-width:2px;opacity:0.4000000059604645;isolation:isolate"/></g></g></svg>