<svg xmlns="http://www.w3.org/2000/svg" viewBox="0 0 436.44 64.29"><defs><style>.cls-1{fill:#fff;}</style></defs><g id="Layer_2" data-name="Layer 2"><g id="Artwork"><path class="cls-1" d="M50.18,9H30.46V63.4H19.52V9H0V.14H50.18Z"/><path class="cls-1" d="M63.27,64.27q-10,0-16.27-6.32T40.76,41.11v-1.3a28.2,28.2,0,0,1,2.76-12.58,20.57,20.57,0,0,1,7.62-8.62,20.16,20.16,0,0,1,11-3.09q9.6,0,14.84,6.13T82.21,39v4.26H51.41a14.1,14.1,0,0,0,3.89,9.21,11.66,11.66,0,0,0,8.58,3.39A14.28,14.28,0,0,0,75.69,50l5.7,5.44a19.12,19.12,0,0,1-7.54,6.53A23.61,23.61,0,0,1,63.27,64.27ZM62,24a8.9,8.9,0,0,0-7,3,15.81,15.81,0,0,0-3.41,8.48H71.72v-.75q-.36-5.29-2.83-8A8.85,8.85,0,0,0,62,24Z"/><path class="cls-1" d="M100.11,16.39l.3,5.43a16.91,16.91,0,0,1,13.69-6.3q14.69,0,15,16.81V63.4H118.52V32.92c0-3-.65-5.19-1.93-6.62s-3.4-2.15-6.33-2.15a10.16,10.16,0,0,0-9.54,5.77V63.37H90.16v-47Z"/><path class="cls-1" d="M163.3,50.63A4.81,4.81,0,0,0,161,46.32a24.74,24.74,0,0,0-7.71-2.6,39.5,39.5,0,0,1-9-2.87q-7.91-3.83-7.9-11.08a12.48,12.48,0,0,1,5.15-10.16q5.13-4.1,13-4.09c5.61,0,10.16,1.39,13.62,4.17a13.23,13.23,0,0,1,5.19,10.82H162.78a6.49,6.49,0,0,0-2.26-5.06,8.62,8.62,0,0,0-6-2,9.31,9.31,0,0,0-5.67,1.61,5,5,0,0,0-2.2,4.3,4.29,4.29,0,0,0,2,3.78c1.37.9,4.13,1.8,8.26,2.71a39,39,0,0,1,9.75,3.26,13.81,13.81,0,0,1,5.26,4.54,11.56,11.56,0,0,1,1.72,6.43,12.27,12.27,0,0,1-5.26,10.28q-5.26,3.93-13.77,3.93a24.36,24.36,0,0,1-10.3-2.09,16.93,16.93,0,0,1-7-5.73,13.55,13.55,0,0,1-2.52-7.87H145a7.47,7.47,0,0,0,2.83,5.76,11,11,0,0,0,6.91,2,10.71,10.71,0,0,0,6.34-1.58A4.92,4.92,0,0,0,163.3,50.63Z"/><path class="cls-1" d="M179.12,39.46A27.63,27.63,0,0,1,181.86,27a19.83,19.83,0,0,1,7.66-8.51,21.65,21.65,0,0,1,11.38-3q9.51,0,15.44,6.13t6.44,16.29l.05,2.47a27.82,27.82,0,0,1-2.68,12.43,19.8,19.8,0,0,1-7.64,8.47,21.87,21.87,0,0,1-11.49,3q-10,0-15.93-6.63t-6-17.66Zm10.56.91q0,7.26,3,11.36a10.46,10.46,0,0,0,16.67-.06q3-4.17,3-12.21,0-7.12-3.06-11.3a10.32,10.32,0,0,0-16.53-.06Q189.67,32.21,189.68,40.37Z"/><path class="cls-1" d="M254.59,26a24.78,24.78,0,0,0-4.3-.35q-7.26,0-9.78,5.56V63.4H230v-47H240l.26,5.26q3.83-6.13,10.6-6.13a9.73,9.73,0,0,1,3.74.61Z"/><path class="cls-1" d="M298.73,36.59H273.27V63.4h-11V.14h40.25V9h-29.2V27.82h25.46Z"/><path class="cls-1" d="M319.59,63.4H309V0h10.56Z"/><path class="cls-1" d="M327.32,39.46A27.63,27.63,0,0,1,330.06,27a20,20,0,0,1,7.69-8.51,21.65,21.65,0,0,1,11.38-3q9.51,0,15.45,6.13T371,37.88l0,2.47a28.08,28.08,0,0,1-2.67,12.43,19.76,19.76,0,0,1-7.65,8.47,21.87,21.87,0,0,1-11.49,3q-10,0-15.93-6.63t-6-17.66Zm10.56.91q0,7.26,3,11.36a10.45,10.45,0,0,0,14.65,2,10.73,10.73,0,0,0,2-2q3-4.17,3-12.21,0-7.12-3.06-11.3A10.32,10.32,0,0,0,341,28.1Q337.88,32.21,337.88,40.37Z"/><path class="cls-1" d="M418.67,48.84l7.47-32.45h10.3l-12.82,47h-8.68L404.86,31.12,395,63.4h-8.69l-12.86-47h10.3l7.6,32.11L401,16.4h7.95Z"/></g></g></svg>