<svg id="Layer_1" data-name="Layer 1" xmlns="http://www.w3.org/2000/svg" xmlns:xlink="http://www.w3.org/1999/xlink" viewBox="0 0 563.24 103.75"><defs><clipPath id="clip-path" transform="translate(-58.53 -62.88)"><polygon points="155.46 88.44 111.38 63.26 111.38 166.5 128.99 156.27 128.99 127.22 142.29 134.92 142.22 115.06 128.99 107.5 128.99 95.96 155.52 111.29 155.46 88.44" style="fill:none"/></clipPath><clipPath id="clip-path-2" transform="translate(-58.53 -62.88)"><polygon points="63.33 88.44 107.42 63.26 107.42 166.5 89.81 156.27 89.81 95.96 63.27 111.29 63.33 88.44" style="fill:none"/></clipPath></defs><path d="M155.46,88.44,111.38,63.26V166.5L129,156.27V127.22l13.3,7.7-.07-19.86L129,107.5V96l26.53,15.33Z" transform="translate(-58.53 -62.88)" style="fill:#fff"/><g style="clip-path:url(#clip-path)"><path d="M59.26,62.88H167.52V166.63H59.26Z" transform="translate(-58.53 -62.88)" style="fill:#fff"/></g><path d="M63.33,88.44l44.09-25.18V166.5L89.81,156.27V96L63.27,111.29Z" transform="translate(-58.53 -62.88)" style="fill:#fff"/><g style="clip-path:url(#clip-path-2)"><path d="M58.53,62.88H166.79V166.63H58.53Z" transform="translate(-58.53 -62.88)" style="fill:#fff"/></g><path d="M235.46,95.27H215.73v54.4h-10.9V95.27H185.28V86.41h50.18Z" transform="translate(-58.53 -62.88)" style="fill:#fff"/><path d="M248.55,150.54q-10,0-16.27-6.33T226,127.38v-1.3a28.19,28.19,0,0,1,2.72-12.58,20.65,20.65,0,0,1,7.62-8.63,20.24,20.24,0,0,1,11-3.08q9.6,0,14.84,6.12t5.23,17.34v4.26H236.69a14,14,0,0,0,3.88,9.21,11.7,11.7,0,0,0,8.58,3.39A14.28,14.28,0,0,0,261,136.24l5.69,5.43a19,19,0,0,1-7.53,6.54,23.61,23.61,0,0,1-10.61,2.33Zm-1.26-40.28a8.9,8.9,0,0,0-7,3,15.75,15.75,0,0,0-3.41,8.47H257V121q-.35-5.3-2.82-8a8.83,8.83,0,0,0-6.89-2.74Z" transform="translate(-58.53 -62.88)" style="fill:#fff"/><path d="M285.39,102.66l.3,5.43a16.91,16.91,0,0,1,13.69-6.3q14.69,0,14.94,16.81v31.07H303.77V119.21q0-4.47-1.94-6.62c-1.29-1.44-3.39-2.16-6.32-2.16a10.14,10.14,0,0,0-9.51,5.78v33.46H275.44v-47Z" transform="translate(-58.53 -62.88)" style="fill:#fff"/><path d="M348.58,136.89a4.79,4.79,0,0,0-2.32-4.3,24.54,24.54,0,0,0-7.72-2.6,40.16,40.16,0,0,1-9-2.87q-7.91-3.83-7.91-11.08a12.52,12.52,0,0,1,5.13-10.17q5.13-4.08,13-4.08,8.43,0,13.62,4.17a13.21,13.21,0,0,1,5.2,10.82H348.06a6.49,6.49,0,0,0-2.26-5.06,8.68,8.68,0,0,0-6-2,9.37,9.37,0,0,0-5.67,1.6,5.07,5.07,0,0,0-2.19,4.3,4.25,4.25,0,0,0,2,3.78c1.36.9,4.12,1.81,8.26,2.72a39,39,0,0,1,9.75,3.26,13.81,13.81,0,0,1,5.26,4.54,11.66,11.66,0,0,1,1.71,6.43,12.26,12.26,0,0,1-5.25,10.27q-5.26,3.94-13.78,3.94a24.31,24.31,0,0,1-10.29-2.09,16.93,16.93,0,0,1-7-5.73,13.55,13.55,0,0,1-2.52-7.87h10.25a7.48,7.48,0,0,0,2.83,5.76,10.93,10.93,0,0,0,6.91,2q4.17,0,6.34-1.59A4.89,4.89,0,0,0,348.58,136.89Z" transform="translate(-58.53 -62.88)" style="fill:#fff"/><path d="M364.4,125.73a27.76,27.76,0,0,1,2.73-12.45,20,20,0,0,1,7.69-8.52,21.71,21.71,0,0,1,11.39-3q9.51,0,15.44,6.12t6.41,16.25v2.48A28.08,28.08,0,0,1,405.39,139a19.8,19.8,0,0,1-7.64,8.47,21.88,21.88,0,0,1-11.5,3q-9.94,0-15.92-6.63t-6-17.66Zm10.55.91q0,7.26,3,11.36a9.74,9.74,0,0,0,8.34,4.11,9.62,9.62,0,0,0,8.32-4.17q3-4.17,3-12.21,0-7.12-3.06-11.3a10.32,10.32,0,0,0-16.53-.06c-2,2.73-3,6.83-3,12.27Z" transform="translate(-58.53 -62.88)" style="fill:#fff"/><path d="M439.87,112.3a27,27,0,0,0-4.31-.34q-7.24,0-9.77,5.56v32.15H415.23v-47h10.08l.26,5.25q3.82-6.12,10.6-6.12a10,10,0,0,1,3.74.61Z" transform="translate(-58.53 -62.88)" style="fill:#fff"/><path d="M484,122.86H458.55v26.81h-11V86.41h40.18v8.86H458.55v18.81H484Z" transform="translate(-58.53 -62.88)" style="fill:#fff"/><path d="M504.86,149.67H494.31V86.27h10.55Z" transform="translate(-58.53 -62.88)" style="fill:#fff"/><path d="M512.6,125.73a27.63,27.63,0,0,1,2.74-12.45,20,20,0,0,1,7.69-8.52,21.65,21.65,0,0,1,11.38-3q9.51,0,15.44,6.12t6.41,16.25v2.48A27.82,27.82,0,0,1,553.58,139a19.8,19.8,0,0,1-7.64,8.47,21.87,21.87,0,0,1-11.49,3q-10,0-15.93-6.63t-6-17.66Zm10.56.91q0,7.26,3,11.36a10.46,10.46,0,0,0,16.67-.06q3-4.17,3-12.21,0-7.12-3.06-11.3a10.32,10.32,0,0,0-16.53-.06c-2.07,2.73-3.08,6.83-3.08,12.27Z" transform="translate(-58.53 -62.88)" style="fill:#fff"/><path d="M604,135.11l7.47-32.45h10.3l-12.82,47h-8.69l-10.08-32.28-9.9,32.28h-8.69l-12.86-47H569l7.6,32.1,9.64-32.1h8Z" transform="translate(-58.53 -62.88)" style="fill:#fff"/></svg>